<svg width="17" height="17" viewBox="0 0 17 17" fill="none" xmlns="http://www.w3.org/2000/svg">
<path d="M0.304688 0.940874C0.304688 0.799472 0.360859 0.66386 0.460846 0.563874C0.560833 0.463887 0.696444 0.407715 0.837847 0.407715H2.43732C2.55625 0.407748 2.67175 0.447543 2.76546 0.520771C2.85917 0.593999 2.92571 0.696457 2.95449 0.81185L3.38635 2.54035H15.7663C15.8446 2.54042 15.9219 2.55774 15.9927 2.59106C16.0636 2.62438 16.1262 2.67289 16.1762 2.73315C16.2262 2.7934 16.2623 2.86393 16.2819 2.93971C16.3016 3.01549 16.3043 3.09466 16.2899 3.17161L14.6904 11.7022C14.6675 11.8243 14.6027 11.9347 14.5071 12.0141C14.4115 12.0936 14.2911 12.1371 14.1668 12.1372H4.56996C4.44566 12.1371 4.32531 12.0936 4.22971 12.0141C4.13411 11.9347 4.06927 11.8243 4.0464 11.7022L2.44799 3.18761L2.02146 1.47403H0.837847C0.696444 1.47403 0.560833 1.41786 0.460846 1.31787C0.360859 1.21789 0.304688 1.08228 0.304688 0.940874ZM3.61241 3.60667L5.01248 11.0709H13.7243L15.1244 3.60667H3.61241ZM5.63628 12.1372C5.07067 12.1372 4.52822 12.3619 4.12828 12.7619C3.72833 13.1618 3.50364 13.7042 3.50364 14.2699C3.50364 14.8355 3.72833 15.3779 4.12828 15.7779C4.52822 16.1778 5.07067 16.4025 5.63628 16.4025C6.20189 16.4025 6.74434 16.1778 7.14428 15.7779C7.54423 15.3779 7.76892 14.8355 7.76892 14.2699C7.76892 13.7042 7.54423 13.1618 7.14428 12.7619C6.74434 12.3619 6.20189 12.1372 5.63628 12.1372ZM13.1005 12.1372C12.5349 12.1372 11.9925 12.3619 11.5925 12.7619C11.1926 13.1618 10.9679 13.7042 10.9679 14.2699C10.9679 14.8355 11.1926 15.3779 11.5925 15.7779C11.9925 16.1778 12.5349 16.4025 13.1005 16.4025C13.6661 16.4025 14.2086 16.1778 14.6085 15.7779C15.0085 15.3779 15.2331 14.8355 15.2331 14.2699C15.2331 13.7042 15.0085 13.1618 14.6085 12.7619C14.2086 12.3619 13.6661 12.1372 13.1005 12.1372ZM5.63628 13.2035C5.91909 13.2035 6.19031 13.3159 6.39028 13.5159C6.59025 13.7158 6.7026 13.9871 6.7026 14.2699C6.7026 14.5527 6.59025 14.8239 6.39028 15.0239C6.19031 15.2238 5.91909 15.3362 5.63628 15.3362C5.35347 15.3362 5.08225 15.2238 4.88228 15.0239C4.68231 14.8239 4.56996 14.5527 4.56996 14.2699C4.56996 13.9871 4.68231 13.7158 4.88228 13.5159C5.08225 13.3159 5.35347 13.2035 5.63628 13.2035ZM13.1005 13.2035C13.3833 13.2035 13.6545 13.3159 13.8545 13.5159C14.0545 13.7158 14.1668 13.9871 14.1668 14.2699C14.1668 14.5527 14.0545 14.8239 13.8545 15.0239C13.6545 15.2238 13.3833 15.3362 13.1005 15.3362C12.8177 15.3362 12.5465 15.2238 12.3465 15.0239C12.1465 14.8239 12.0342 14.5527 12.0342 14.2699C12.0342 13.9871 12.1465 13.7158 12.3465 13.5159C12.5465 13.3159 12.8177 13.2035 13.1005 13.2035Z" fill="white"/>
</svg>
