<svg width="15" height="16" viewBox="0 0 15 16" fill="none" xmlns="http://www.w3.org/2000/svg">
<path d="M14.6678 0.751824C14.5625 0.646351 14.4375 0.562673 14.2998 0.50558C14.1622 0.448487 14.0147 0.419098 13.8657 0.419098C13.7166 0.419098 13.5691 0.448487 13.4315 0.50558C13.2938 0.562673 13.1688 0.646351 13.0635 0.751824L7.5 6.30399L1.93646 0.740446C1.83112 0.635112 1.70607 0.551556 1.56845 0.49455C1.43082 0.437544 1.28331 0.408203 1.13435 0.408203C0.985385 0.408203 0.837878 0.437544 0.700252 0.49455C0.562627 0.551556 0.437577 0.635112 0.332243 0.740446C0.226909 0.84578 0.143353 0.97083 0.0863469 1.10846C0.0293405 1.24608 -1.10987e-09 1.39359 0 1.54255C1.10988e-09 1.69152 0.0293405 1.83902 0.0863469 1.97665C0.143353 2.11428 0.226909 2.23932 0.332243 2.34466L5.89579 7.9082L0.332243 13.4717C0.226909 13.5771 0.143353 13.7021 0.0863469 13.8398C0.0293405 13.9774 0 14.1249 0 14.2739C0 14.4228 0.0293405 14.5703 0.0863469 14.708C0.143353 14.8456 0.226909 14.9706 0.332243 15.076C0.437577 15.1813 0.562627 15.2649 0.700252 15.3219C0.837878 15.3789 0.985385 15.4082 1.13435 15.4082C1.28331 15.4082 1.43082 15.3789 1.56845 15.3219C1.70607 15.2649 1.83112 15.1813 1.93646 15.076L7.5 9.51242L13.0635 15.076C13.1689 15.1813 13.2939 15.2649 13.4316 15.3219C13.5692 15.3789 13.7167 15.4082 13.8657 15.4082C14.0146 15.4082 14.1621 15.3789 14.2997 15.3219C14.4374 15.2649 14.5624 15.1813 14.6678 15.076C14.7731 14.9706 14.8566 14.8456 14.9137 14.708C14.9707 14.5703 15 14.4228 15 14.2739C15 14.1249 14.9707 13.9774 14.9137 13.8398C14.8566 13.7021 14.7731 13.5771 14.6678 13.4717L9.10421 7.9082L14.6678 2.34466C15.1001 1.91232 15.1001 1.18416 14.6678 0.751824Z" fill="black"/>
</svg>
